#!OML:ASF F:\VICON\USERDATA\INSTALL\rory3\rory3.ASF
:FULLY-SPECIFIED
:DEGREES
1273
root -0.651561 17.7273 -7.8211 -0.171981 22.8839 0.424708
lowerback 1.53917 -2.99785 -5.95597
upperback 1.42671 -4.05514 0.778236
thorax 1.08075 -2.0955 4.14125
lowerneck -20.6741 -3.18207 -11.6975
upperneck 29.6816 -0.743593 1.49482
head 13.6387 -1.43528 2.44928
rclavicle 3.59241e-014 1.59028e-015
rhumerus 10.9871 3.33158 -58.554
rradius 85.6241
rwrist 46.8472
rhand -66.2103 -1.84806
rfingers 7.12502
rthumb -38.0416 -27.636
lclavicle 3.59241e-014 1.59028e-015
lhumerus 30.0947 -16.7175 66.2981
lradius 62.4756
lwrist -43.9326
lhand -51.3286 50.8758
lfingers 7.12502
lthumb -23.8637 79.4134
rfemur -21.2743 5.39801 11.5506
rtibia 25.1675
rfoot -5.45098 -12.4332
rtoes 13.5676
lfemur -2.49443 4.23508 -24.8172
ltibia 24.1476
lfoot -17.1933 10.4243
ltoes -10.0585
1274
root -0.648614 17.7226 -7.84576 -0.292359 22.787 0.481609
lowerback 1.59522 -3.02149 -5.97618
upperback 1.38481 -4.09142 0.746074
thorax 1.00931 -2.11043 4.12378
lowerneck -20.5027 -3.13757 -11.809
upperneck 29.6903 -0.689208 1.57125
head 13.603 -1.41391 2.50865
rclavicle -3.49923e-014 1.14301e-014
rhumerus 13.3009 3.11839 -58.1917
rradius 82.5203
rwrist 48
rhand -67.4119 -2.31986
rfingers 7.12502
rthumb -39.1752 -27.7895
lclavicle -3.49923e-014 1.14301e-014
lhumerus 32.281 -16.6042 65.5928
lradius 59.2432
lwrist -44.9947
lhand -51.9086 52.7114
lfingers 7.12502
lthumb -24.4199 81.1751
rfemur -21.1906 5.47554 11.4585
rtibia 25.1175
rfoot -5.36615 -12.4379
rtoes 13.6358
lfemur -2.4613 4.27725 -24.9232
ltibia 24.2587
lfoot -17.2313 10.4661
ltoes -9.97883
1275
root -0.644933 17.7196 -7.87187 -0.362122 22.755 0.49315
lowerback 1.65752 -3.09043 -5.91567
upperback 1.30716 -4.18882 0.726842
thorax 0.899456 -2.15329 4.07591
lowerneck -20.4864 -3.08949 -11.8877
upperneck 29.792 -0.589712 1.57052
head 13.6366 -1.38416 2.54051
rclavicle -9.85413e-014 -1.09332e-015
rhumerus 15.6793 2.94691 -57.8879
rradius 79.2471
rwrist 49.2043
rhand -68.3583 -3.62251
rfingers 7.12502
rthumb -40.0664 -28.8285
lclavicle -9.85413e-014 -1.09332e-015
lhumerus 34.4468 -16.447 64.8821
lradius 55.9511
lwrist -45.8553
lhand -52.3744 54.5757
lfingers 7.12502
lthumb -24.8664 82.9784
rfemur -21.1735 5.43813 11.4043
rtibia 25.1035
rfoot -5.05065 -12.3873
rtoes 14.8579
lfemur -2.52528 4.37734 -24.9793
ltibia 24.3684
lfoot -17.176 10.4311
ltoes -10.1346
1276
root -0.639033 17.7133 -7.8947 -0.381639 22.7368 0.610141
lowerback 1.73781 -3.17683 -5.97539
upperback 1.16337 -4.31394 0.69582
thorax 0.722412 -2.20743 4.08661
lowerneck -20.4061 -2.99507 -11.862
upperneck 29.9765 -0.430253 1.45972
head 13.6867 -1.3351 2.5227
rclavicle 1.06163e-014 -6.95746e-016
rhumerus 17.9714 2.87237 -57.6436
rradius 75.8798
rwrist 50.2926
rhand -68.4706 -4.1878
rfingers 7.12502
rthumb -40.172 -29.3617
lclavicle 1.06163e-014 -6.95746e-016
lhumerus 36.4923 -16.2707 64.2963
lradius 52.5437
lwrist -46.497
lhand -52.5886 55.558
lfingers 7.12502
lthumb -25.0716 83.9322
rfemur -21.1522 5.37152 11.2371
rtibia 25.0887
rfoot -4.85336 -12.2923
rtoes 15.5497
lfemur -2.60686 4.39302 -25.1557
ltibia 24.5144
lfoot -17.1706 10.4737
ltoes -9.98663
1277
root -0.634481 17.7054 -7.91664 -0.527235 22.6632 0.592025
lowerback 1.83166 -3.23244 -5.93995
upperback 1.09651 -4.39559 0.690365
thorax 0.606999 -2.24291 4.06939
lowerneck -20.2998 -2.90213 -11.8046
upperneck 30.0483 -0.305589 1.38795
head 13.6844 -1.28737 2.50741
rclavicle -5.32494e-014 -5.06901e-015
rhumerus 20.3532 2.81375 -57.4122
rradius 72.3632
rwrist 50.9861
rhand -67.8838 -2.41836
rfingers 7.12502
rthumb -39.6197 -27.758
lclavicle -5.32494e-014 -5.06901e-015
lhumerus 38.6761 -15.8846 64.1767
lradius 48.7618
lwrist -47.3588
lhand -52.5556 56.3933
lfingers 7.12502
lthumb -25.04 84.772
rfemur -21.0482 5.3858 11.2266
rtibia 25.0295
rfoot -4.77607 -12.2196
rtoes 15.6783
lfemur -2.6216 4.40518 -25.1868
ltibia 24.7032
lfoot -17.2164 10.5556
ltoes -9.99395
1278
root -0.633115 17.701 -7.93991 -0.694466 22.5627 0.481113
lowerback 1.8973 -3.26655 -5.83534
upperback 1.04203 -4.44532 0.6952
thorax 0.511862 -2.26302 4.02242
lowerneck -20.143 -2.83235 -11.7844
upperneck 30.0804 -0.229526 1.37392
head 13.6583 -1.25509 2.51233
rclavicle 3.11533e-014 -1.56046e-014
rhumerus 22.7312 2.70873 -57.1671
rradius 68.6759
rwrist 51.3996
rhand -67.2291 -1.90137
rfingers 7.12502
rthumb -39.0029 -27.4206
lclavicle 3.11533e-014 -1.56046e-014
lhumerus 40.999 -15.6348 63.8686
lradius 44.8098
lwrist -48.0398
lhand -52.2983 56.6502
lfingers 7.12502
lthumb -24.7934 85.063
rfemur -20.9772 5.54513 11.3057
rtibia 24.9583
rfoot -4.69818 -12.2608
rtoes 15.4273
lfemur -2.67981 4.44892 -25.1133
ltibia 24.9175
lfoot -17.2404 10.6381
ltoes -9.95122
1279
root -0.630048 17.6997 -7.96446 -0.824439 22.4673 0.369622
lowerback 1.92993 -3.29686 -5.71884
upperback 0.986885 -4.48761 0.717289
thorax 0.434044 -2.28007 3.98464
lowerneck -20.0351 -2.76365 -11.7288
upperneck 30.1311 -0.120581 1.24575
head 13.6493 -1.22123 2.47133
rclavicle 1.06319e-014 3.67752e-015
rhumerus 25.093 2.50673 -57.0388
rradius 64.9076
rwrist 51.7519
rhand -66.3976 -3.00349
rfingers 7.12502
rthumb -38.2185 -28.7429
lclavicle 1.06319e-014 3.67752e-015
lhumerus 43.3895 -15.9321 62.4516
lradius 41.1769
lwrist -47.4838
lhand -52.0284 56.546
lfingers 7.12502
lthumb -24.5347 84.9942
rfemur -20.944 5.71206 11.3697
rtibia 24.8814
rfoot -4.63808 -12.3357
rtoes 15.4857
lfemur -2.7895 4.46592 -25.052
ltibia 25.1593
lfoot -17.3062 10.7117
ltoes -9.70193
1280
root -0.625891 17.6936 -7.98783 -0.891469 22.3482 0.343839
lowerback 1.92617 -3.33157 -5.68697
upperback 0.937143 -4.53465 0.753237
thorax 0.39047 -2.30129 4.00558
lowerneck -19.9885 -2.68254 -11.6811
upperneck 30.1615 0.0272066 1.08977
head 13.6426 -1.17467 2.42679
rclavicle 3.3371e-014 -7.65321e-015
rhumerus 27.4546 2.37808 -56.9225
rradius 61.1939
rwrist 51.8446
rhand -65.4286 -4.43423
rfingers 7.12502
rthumb -37.303 -30.4198
lclavicle 3.3371e-014 -7.65321e-015
lhumerus 45.5703 -16.1423 61.0703
lradius 37.8192
lwrist -46.683
lhand -51.6554 54.6865
lfingers 7.12502
lthumb -24.1771 83.1827
rfemur -20.9555 5.72145 11.3625
rtibia 24.8164
rfoot -4.48642 -12.2691
rtoes 15.8053
lfemur -2.91187 4.54987 -25.076
ltibia 25.3894
lfoot -17.3449 10.7606
ltoes -9.72294
1281
root -0.620546 17.687 -8.00687 -0.906198 22.1456 0.400275
lowerback 1.91032 -3.3342 -5.65858
upperback 0.862925 -4.53874 0.707202
thorax 0.317124 -2.29907 3.94435
lowerneck -19.9352 -2.61386 -11.6132
upperneck 30.1818 0.116654 1.02567
head 13.6328 -1.13787 2.40555
rclavicle -2.65657e-014 2.88238e-015
rhumerus 29.7363 2.2324 -57.0076
rradius 57.4737
rwrist 51.7294
rhand -64.5809 -7.15202
rfingers 7.12502
rthumb -36.501 -33.3438
lclavicle -2.65657e-014 2.88238e-015
lhumerus 47.2499 -15.7982 60.9224
lradius 34.6012
lwrist -47.1646
lhand -50.9104 51.4812
lfingers 7.12502
lthumb -23.4627 80.0706
rfemur -21.0083 5.62164 11.2961
rtibia 24.7673
rfoot -4.20123 -12.0626
rtoes 15.8025
lfemur -3.03349 4.76224 -25.177
ltibia 25.6169
lfoot -17.3683 10.7713
ltoes -9.82951
1282
root -0.617868 17.6806 -8.02286 -0.970059 21.8869 0.424234
lowerback 1.45142 -3.32184 -5.7767
upperback 1.14119 -4.48839 0.754469
thorax 0.869024 -2.29757 4.01704
lowerneck -20.116 -2.63701 -11.6818
upperneck 30.0525 0.143661 0.981229
head 13.6158 -1.13592 2.40169
rclavicle 3.62782e-015 1.68967e-015
rhumerus 32.4228 1.81503 -57.1021
rradius 53.8026
rwrist 51.6407
rhand -63.9814 -10.4331
rfingers 7.12502
rthumb -35.9333 -36.766
lclavicle 3.62782e-015 1.68967e-015
lhumerus 49.045 -14.8359 61.585
lradius 31.5441
lwrist -48.4626
lhand -50.4063 49.3043
lfingers 7.12502
lthumb -22.979 77.9547
rfemur -21.0518 5.72618 11.2678
rtibia 24.7544
rfoot -4.15601 -12.0056
rtoes 15.0392
lfemur -3.11935 5.01965 -25.2255
ltibia 25.8378
lfoot -17.4332 10.7943
ltoes -9.85418
1283
root -0.619312 17.6749 -8.04174 -1.11477 21.6378 0.290219
lowerback 1.63014 -3.34445 -5.75814
upperback 1.03369 -4.53293 0.878337
thorax 0.671695 -2.31243 4.15025
lowerneck -20.2648 -2.54178 -11.6319
upperneck 30.2789 0.368921 0.766511
head 13.7315 -1.07354 2.34952
rclavicle 3.15509e-014 -4.07509e-015
rhumerus 34.4789 1.89263 -57.1004
rradius 50.441
rwrist 51.4711
rhand -63.4122 -12.4885
rfingers 7.12502
rthumb -35.3939 -38.9516
lclavicle 3.15509e-014 -4.07509e-015
lhumerus 50.1957 -14.0558 62.3514
lradius 28.6936
lwrist -49.4366
lhand -50.0242 48.3807
lfingers 7.12502
lthumb -22.6123 77.0762
rfemur -21.087 5.97276 11.4013
rtibia 24.7558
rfoot -4.34342 -12.0894
rtoes 13.9239
lfemur -3.19183 5.2173 -25.0984
ltibia 26.0434
lfoot -17.5052 10.8489
ltoes -9.91868
